# Blender v2.93.5 OBJ File: ''
# www.blender.org
mtllib BeamShot.mtl
o Cube
v -1.140034 0.239413 -0.061102
v -0.595617 0.958343 -0.061102
v 0.297704 1.081743 -0.061102
v 1.016634 0.537326 -0.061102
v 1.016663 0.536052 1.859386
v 0.298522 1.080820 1.859386
v 0.268337 0.780461 2.766964
v -0.268337 0.780461 2.766964
v -0.594489 0.958227 1.859386
v -1.139256 0.240086 1.859386
v 0.297897 0.810022 -2.766964
v 1.016663 0.536052 -1.981590
v 0.298522 1.080820 -1.981590
v -0.594489 0.958227 -1.981590
v -1.139256 0.240086 -1.981590
v -0.297897 0.810022 -2.766964
v -1.016634 -0.653908 -0.061102
v -0.297704 -1.198325 -0.061102
v 0.595617 -1.074926 -0.061102
v 1.140034 -0.355996 -0.061102
v 0.353168 -0.625851 3.406123
v 0.594489 -1.075099 1.859386
v 1.139256 -0.356959 1.859386
v -0.353168 -0.625851 3.406123
v -1.016663 -0.652925 1.859386
v -0.298522 -1.197693 1.859386
v 0.382729 -0.655412 -3.406123
v 1.139256 -0.356959 -1.981590
v 0.594489 -1.075099 -1.981590
v -0.298522 -1.197693 -1.981590
v -1.016663 -0.652925 -1.981590
v -0.382729 -0.655412 -3.406123
v 0.185125 -0.107944 4.134017
v 0.221754 -0.068681 4.076136
v -0.185125 -0.107944 4.134017
v -0.221754 -0.068681 4.076136
v 0.185125 -0.126217 4.134017
v 0.221416 -0.165826 4.076443
v -0.185125 -0.126217 4.134017
v -0.221416 -0.165826 4.076444
v 0.160737 -0.102442 -4.080982
v 0.195880 -0.062512 -4.015795
v -0.160737 -0.102442 -4.080982
v -0.195880 -0.062512 -4.015795
v 0.160737 -0.131712 -4.080982
v 0.195871 -0.171634 -4.015748
v -0.160737 -0.131712 -4.080982
v -0.195871 -0.171634 -4.015748
vt 0.077987 0.619814
vt 0.189984 0.451214
vt 0.250820 0.466589
vt 0.218353 0.679873
vt 0.320925 0.284014
vt 0.312097 0.368055
vt 0.265420 0.361995
vt 0.277051 0.274803
vt 0.368007 0.658771
vt 0.313758 0.469653
vt 0.381565 0.488618
vt 0.461860 0.585602
vt 0.129849 0.451839
vt 0.078415 0.300694
vt 0.218966 0.355150
vt 0.862256 0.254773
vt 0.768844 0.327019
vt 0.724576 0.280671
vt 0.821558 0.202225
vt 0.003994 0.538052
vt 0.457327 0.351865
vt 0.548737 0.328204
vt 0.455682 0.334340
vt 0.408584 0.265876
vt 0.549710 0.177104
vt 0.619440 0.040455
vt 0.634478 0.027848
vt 0.778881 0.151142
vt 0.688099 0.227756
vt 0.734992 0.455805
vt 0.667928 0.443197
vt 0.935192 0.434436
vt 0.086567 0.282033
vt 0.009808 0.248306
vt 0.059071 0.099798
vt 0.159579 0.228873
vt 0.196041 0.000106
vt 0.230615 0.175608
vt 0.348427 0.191206
vt 0.427344 0.026530
vt 0.232260 0.272165
vt 0.290633 0.174191
vt 0.312158 0.001558
vt 0.540374 0.338105
vt 0.540420 0.342154
vt 0.463587 0.344527
vt 0.463359 0.341154
vt 0.554119 0.303467
vt 0.549923 0.225461
vt 0.607295 0.376317
vt 0.952614 0.420891
vt 0.076935 0.286359
vt 0.074907 0.291385
vt 0.011966 0.266892
vt 0.014550 0.260766
vt 0.740249 0.000106
vt 0.875823 0.031544
vt 0.947881 0.101088
vt 0.999894 0.186743
vt 0.999894 0.314323
vt 0.549710 0.351230
vt 0.000106 0.273004
vn 0.2810 0.9437 -0.1743
vn -0.5112 0.8390 -0.1861
vn -0.5052 0.8630 0.0000
vn 0.2529 0.9675 0.0000
vn -0.8728 -0.4559 0.1743
vn -0.9481 0.2522 0.1935
vn -0.9675 0.2529 0.0000
vn -0.8630 -0.5052 0.0000
vn 0.2807 0.9452 0.1667
vn -0.5072 0.8439 0.1749
vn -0.3802 0.8228 0.4223
vn 0.3176 0.8516 0.4169
vn -0.3816 0.8095 -0.4461
vn -0.6070 0.5039 -0.6145
vn -0.9460 0.2466 -0.2102
vn 0.9576 -0.2123 -0.1945
vn 0.8619 0.4641 -0.2041
vn 0.8629 0.5052 0.0000
vn 0.9675 -0.2529 0.0000
vn 0.3274 0.8357 -0.4408
vn -0.6119 0.5018 0.6113
vn 0.6003 -0.5053 0.6200
vn -0.5716 -0.5658 0.5942
vn -0.3619 -0.8346 0.4152
vn 0.4577 -0.7780 0.4304
vn 0.5842 0.5600 0.5874
vn 0.9577 -0.2242 0.1804
vn 0.8617 0.4711 0.1887
vn 0.5812 0.5589 -0.5915
vn -0.5687 -0.5571 -0.6052
vn 0.5955 -0.4981 -0.6303
vn 0.4721 -0.7509 -0.4617
vn -0.3835 -0.8098 -0.4439
vn 0.5140 -0.8380 -0.1832
vn -0.2970 -0.9385 -0.1757
vn -0.2894 -0.9421 0.1692
vn 0.5072 -0.8440 0.1744
vn -0.8771 -0.4426 -0.1865
vn -0.2529 -0.9675 0.0000
vn 0.5052 -0.8629 0.0000
vn 0.3884 -0.3703 0.8438
vn 0.3881 0.3725 0.8430
vn -0.3881 0.3725 0.8430
vn -0.3884 -0.3703 0.8438
vn -0.4154 -0.3902 -0.8216
vn -0.4155 0.3899 -0.8217
vn 0.4155 0.3899 -0.8217
vn 0.4154 -0.3902 -0.8216
usemtl Material
s 1
f 13/1/1 14/2/2 2/3/3 3/4/4
f 25/5/5 10/6/6 1/7/7 17/8/8
f 6/9/9 9/10/10 8/11/11 7/12/12
f 14/2/2 16/13/13 44/14/14 15/15/15
f 28/16/16 12/17/17 4/18/18 20/19/19
f 14/2/2 13/1/1 11/20/20 16/13/13
f 8/11/11 9/10/10 10/6/6 36/21/21
f 38/22/22 40/23/23 24/24/24 21/25/25
f 34/26/26 38/27/22 23/28/27 5/29/28
f 11/30/20 13/31/1 12/17/17 42/32/29
f 48/33/30 46/34/31 27/35/32 32/36/33
f 29/37/34 30/38/35 32/36/33 27/35/32
f 26/39/36 22/40/37 21/25/25 24/24/24
f 3/4/4 2/3/3 9/10/10 6/9/9
f 17/8/8 1/7/7 15/15/15 31/41/38
f 18/42/39 19/43/40 22/40/37 26/39/36
f 15/15/15 1/7/7 2/3/3 14/2/2
f 40/23/23 36/21/21 10/6/6 25/5/5
f 37/44/41 33/45/42 35/46/43 39/47/44
f 6/48/9 7/49/12 34/26/26 5/29/28
f 13/31/1 3/50/4 4/18/18 12/17/17
f 12/17/17 28/16/16 46/51/31 42/32/29
f 44/14/14 48/33/30 31/41/38 15/15/15
f 47/52/45 43/53/46 41/54/47 45/55/48
f 3/50/4 6/48/9 5/29/28 4/18/18
f 1/7/7 10/6/6 9/10/10 2/3/3
f 20/19/19 4/18/18 5/29/28 23/28/27
f 26/39/36 24/24/24 40/23/23 25/5/5
f 21/56/25 22/57/37 23/28/27 38/27/22
f 25/5/5 17/8/8 18/42/39 26/39/36
f 22/57/37 19/58/40 20/19/19 23/28/27
f 31/41/38 48/33/30 32/36/33 30/38/35
f 46/51/31 28/16/16 29/59/34 27/60/32
f 19/58/40 29/59/34 28/16/16 20/19/19
f 17/8/8 31/41/38 30/38/35 18/42/39
f 30/38/35 29/37/34 19/43/40 18/42/39
f 35/46/43 33/45/42 34/61/26 36/21/21
f 37/44/41 39/47/44 40/23/23 38/22/22
f 38/22/22 34/61/26 33/45/42 37/44/41
f 36/21/21 40/23/23 39/47/44 35/46/43
f 36/21/21 34/61/26 7/12/12 8/11/11
f 41/54/47 43/53/46 44/14/14 42/62/29
f 47/52/45 45/55/48 46/34/31 48/33/30
f 45/55/48 41/54/47 42/62/29 46/34/31
f 48/33/30 44/14/14 43/53/46 47/52/45
f 42/62/29 44/14/14 16/13/13 11/20/20
